<svg width="40" height="40" viewBox="0 0 40 40" fill="none" xmlns="http://www.w3.org/2000/svg">
<path d="M16.3256 15.7191C18.3549 14.5476 21.645 14.5476 23.6742 15.7191L36.3256 23.0228C38.3548 24.1942 38.3548 26.0936 36.3256 27.2651L23.6742 34.5687C21.645 35.7402 18.3549 35.7402 16.3256 34.5687L3.6743 27.2651C1.64504 26.0936 1.64504 24.1942 3.6743 23.0228L16.3256 15.7191Z" fill="#E9A23B" fill-opacity="0.2"/>
<path d="M16.3258 10.5097C18.355 9.33817 21.6451 9.33817 23.6744 10.5097L36.3257 17.8133C38.355 18.9848 38.355 20.8842 36.3257 22.0556L23.6744 29.3593C21.6451 30.5308 18.355 30.5308 16.3258 29.3593L3.67442 22.0556C1.64516 20.8841 1.64516 18.9848 3.67442 17.8133L16.3258 10.5097Z" fill="#E9A23B" fill-opacity="0.5"/>
<path d="M16.3258 5.12118C18.355 3.94968 21.6451 3.94968 23.6744 5.12118L36.3257 12.4248C38.355 13.5963 38.355 15.4957 36.3257 16.6672L23.6744 23.9708C21.6451 25.1423 18.355 25.1423 16.3258 23.9708L3.67442 16.6671C1.64516 15.4957 1.64516 13.5963 3.67442 12.4248L16.3258 5.12118Z" fill="#E9A23B"/>
</svg>
