<svg width="20" height="20" viewBox="0 0 20 20" fill="none" xmlns="http://www.w3.org/2000/svg">
<circle cx="10" cy="10" r="7.5" fill="#F8FAFC" fill-opacity="0.25"/>
<path d="M9.99999 4.46669C9.99999 4.32388 9.99999 4.25248 10.0467 4.20813C10.0934 4.16377 10.1622 4.16731 10.2999 4.1744C11.2196 4.22174 12.1166 4.4863 12.9167 4.94821C13.8034 5.46019 14.5398 6.19658 15.0518 7.08335C15.5638 7.97013 15.8333 8.97606 15.8333 10C15.8333 11.024 15.5638 12.0299 15.0518 12.9167C14.5398 13.8035 13.8034 14.5399 12.9167 15.0518C12.0299 15.5638 11.024 15.8334 9.99999 15.8334C8.97603 15.8334 7.9701 15.5638 7.08332 15.0518C6.28329 14.5899 5.60566 13.9454 5.10479 13.1725C5.02983 13.0569 4.99235 12.999 5.00741 12.9364C5.02247 12.8738 5.08431 12.8381 5.20798 12.7667L9.84999 10.0866C9.92319 10.0444 9.9598 10.0232 9.97989 9.98842C9.99999 9.95361 9.99999 9.91135 9.99999 9.82682V4.46669Z" fill="#F8FAFC"/>
</svg>
